<svg width="154" height="23" viewBox="0 0 154 23" fill="none" xmlns="http://www.w3.org/2000/svg">
<path d="M13.5898 9.50391V15.75C13.3789 16.0625 13.043 16.4141 12.582 16.8047C12.1211 17.1875 11.4844 17.5234 10.6719 17.8125C9.86719 18.0938 8.82812 18.2344 7.55469 18.2344C6.51562 18.2344 5.55859 18.0547 4.68359 17.6953C3.81641 17.3281 3.0625 16.7969 2.42188 16.1016C1.78906 15.3984 1.29688 14.5469 0.945312 13.5469C0.601562 12.5391 0.429688 11.3984 0.429688 10.125V8.80078C0.429688 7.52734 0.578125 6.39062 0.875 5.39062C1.17969 4.39062 1.625 3.54297 2.21094 2.84766C2.79688 2.14453 3.51562 1.61328 4.36719 1.25391C5.21875 0.886719 6.19531 0.703125 7.29688 0.703125C8.60156 0.703125 9.69141 0.929687 10.5664 1.38281C11.4492 1.82812 12.1367 2.44531 12.6289 3.23438C13.1289 4.02344 13.4492 4.92188 13.5898 5.92969H11.3281C11.2266 5.3125 11.0234 4.75 10.7188 4.24219C10.4219 3.73438 9.99609 3.32812 9.44141 3.02344C8.88672 2.71094 8.17188 2.55469 7.29688 2.55469C6.50781 2.55469 5.82422 2.69922 5.24609 2.98828C4.66797 3.27734 4.19141 3.69141 3.81641 4.23047C3.44141 4.76953 3.16016 5.42188 2.97266 6.1875C2.79297 6.95312 2.70312 7.81641 2.70312 8.77734V10.125C2.70312 11.1094 2.81641 11.9883 3.04297 12.7617C3.27734 13.5352 3.60938 14.1953 4.03906 14.7422C4.46875 15.2812 4.98047 15.6914 5.57422 15.9727C6.17578 16.2539 6.83984 16.3945 7.56641 16.3945C8.37109 16.3945 9.02344 16.3281 9.52344 16.1953C10.0234 16.0547 10.4141 15.8906 10.6953 15.7031C10.9766 15.5078 11.1914 15.3242 11.3398 15.1523V11.332H7.39062V9.50391H13.5898ZM19.1797 7.3125V18H17.0117V5.32031H19.1211L19.1797 7.3125ZM23.1406 5.25L23.1289 7.26562C22.9492 7.22656 22.7773 7.20312 22.6133 7.19531C22.457 7.17969 22.2773 7.17188 22.0742 7.17188C21.5742 7.17188 21.1328 7.25 20.75 7.40625C20.3672 7.5625 20.043 7.78125 19.7773 8.0625C19.5117 8.34375 19.3008 8.67969 19.1445 9.07031C18.9961 9.45312 18.8984 9.875 18.8516 10.3359L18.2422 10.6875C18.2422 9.92188 18.3164 9.20312 18.4648 8.53125C18.6211 7.85938 18.8594 7.26562 19.1797 6.75C19.5 6.22656 19.9062 5.82031 20.3984 5.53125C20.8984 5.23438 21.4922 5.08594 22.1797 5.08594C22.3359 5.08594 22.5156 5.10547 22.7188 5.14453C22.9219 5.17578 23.0625 5.21094 23.1406 5.25ZM27.5 5.32031V18H25.3203V5.32031H27.5ZM25.1562 1.95703C25.1562 1.60547 25.2617 1.30859 25.4727 1.06641C25.6914 0.824219 26.0117 0.703125 26.4336 0.703125C26.8477 0.703125 27.1641 0.824219 27.3828 1.06641C27.6094 1.30859 27.7227 1.60547 27.7227 1.95703C27.7227 2.29297 27.6094 2.58203 27.3828 2.82422C27.1641 3.05859 26.8477 3.17578 26.4336 3.17578C26.0117 3.17578 25.6914 3.05859 25.4727 2.82422C25.2617 2.58203 25.1562 2.29297 25.1562 1.95703ZM38.9727 15.5391V0H41.1523V18H39.1602L38.9727 15.5391ZM30.4414 11.8008V11.5547C30.4414 10.5859 30.5586 9.70703 30.793 8.91797C31.0352 8.12109 31.375 7.4375 31.8125 6.86719C32.2578 6.29688 32.7852 5.85938 33.3945 5.55469C34.0117 5.24219 34.6992 5.08594 35.457 5.08594C36.2539 5.08594 36.9492 5.22656 37.543 5.50781C38.1445 5.78125 38.6523 6.18359 39.0664 6.71484C39.4883 7.23828 39.8203 7.87109 40.0625 8.61328C40.3047 9.35547 40.4727 10.1953 40.5664 11.1328V12.2109C40.4805 13.1406 40.3125 13.9766 40.0625 14.7188C39.8203 15.4609 39.4883 16.0938 39.0664 16.6172C38.6523 17.1406 38.1445 17.543 37.543 17.8242C36.9414 18.0977 36.2383 18.2344 35.4336 18.2344C34.6914 18.2344 34.0117 18.0742 33.3945 17.7539C32.7852 17.4336 32.2578 16.9844 31.8125 16.4062C31.375 15.8281 31.0352 15.1484 30.793 14.3672C30.5586 13.5781 30.4414 12.7227 30.4414 11.8008ZM32.6211 11.5547V11.8008C32.6211 12.4336 32.6836 13.0273 32.8086 13.582C32.9414 14.1367 33.1445 14.625 33.418 15.0469C33.6914 15.4688 34.0391 15.8008 34.4609 16.043C34.8828 16.2773 35.3867 16.3945 35.9727 16.3945C36.6914 16.3945 37.2812 16.2422 37.7422 15.9375C38.2109 15.6328 38.5859 15.2305 38.8672 14.7305C39.1484 14.2305 39.3672 13.6875 39.5234 13.1016V10.2773C39.4297 9.84766 39.293 9.43359 39.1133 9.03516C38.9414 8.62891 38.7148 8.26953 38.4336 7.95703C38.1602 7.63672 37.8203 7.38281 37.4141 7.19531C37.0156 7.00781 36.543 6.91406 35.9961 6.91406C35.4023 6.91406 34.8906 7.03906 34.4609 7.28906C34.0391 7.53125 33.6914 7.86719 33.418 8.29688C33.1445 8.71875 32.9414 9.21094 32.8086 9.77344C32.6836 10.3281 32.6211 10.9219 32.6211 11.5547ZM52.6484 8.02734V18H50.4805V5.32031H52.5312L52.6484 8.02734ZM52.1328 11.1797L51.2305 11.1445C51.2383 10.2773 51.3672 9.47656 51.6172 8.74219C51.8672 8 52.2188 7.35547 52.6719 6.80859C53.125 6.26172 53.6641 5.83984 54.2891 5.54297C54.9219 5.23828 55.6211 5.08594 56.3867 5.08594C57.0117 5.08594 57.5742 5.17188 58.0742 5.34375C58.5742 5.50781 59 5.77344 59.3516 6.14062C59.7109 6.50781 59.9844 6.98438 60.1719 7.57031C60.3594 8.14844 60.4531 8.85547 60.4531 9.69141V18H58.2734V9.66797C58.2734 9.00391 58.1758 8.47266 57.9805 8.07422C57.7852 7.66797 57.5 7.375 57.125 7.19531C56.75 7.00781 56.2891 6.91406 55.7422 6.91406C55.2031 6.91406 54.7109 7.02734 54.2656 7.25391C53.8281 7.48047 53.4492 7.79297 53.1289 8.19141C52.8164 8.58984 52.5703 9.04688 52.3906 9.5625C52.2188 10.0703 52.1328 10.6094 52.1328 11.1797ZM71.2227 15.832V9.30469C71.2227 8.80469 71.1211 8.37109 70.918 8.00391C70.7227 7.62891 70.4258 7.33984 70.0273 7.13672C69.6289 6.93359 69.1367 6.83203 68.5508 6.83203C68.0039 6.83203 67.5234 6.92578 67.1094 7.11328C66.7031 7.30078 66.3828 7.54688 66.1484 7.85156C65.9219 8.15625 65.8086 8.48438 65.8086 8.83594H63.6406C63.6406 8.38281 63.7578 7.93359 63.9922 7.48828C64.2266 7.04297 64.5625 6.64062 65 6.28125C65.4453 5.91406 65.9766 5.625 66.5938 5.41406C67.2188 5.19531 67.9141 5.08594 68.6797 5.08594C69.6016 5.08594 70.4141 5.24219 71.1172 5.55469C71.8281 5.86719 72.3828 6.33984 72.7812 6.97266C73.1875 7.59766 73.3906 8.38281 73.3906 9.32812V15.2344C73.3906 15.6562 73.4258 16.1055 73.4961 16.582C73.5742 17.0586 73.6875 17.4688 73.8359 17.8125V18H71.5742C71.4648 17.75 71.3789 17.418 71.3164 17.0039C71.2539 16.582 71.2227 16.1914 71.2227 15.832ZM71.5977 10.3125L71.6211 11.8359H69.4297C68.8125 11.8359 68.2617 11.8867 67.7773 11.9883C67.293 12.082 66.8867 12.2266 66.5586 12.4219C66.2305 12.6172 65.9805 12.8633 65.8086 13.1602C65.6367 13.4492 65.5508 13.7891 65.5508 14.1797C65.5508 14.5781 65.6406 14.9414 65.8203 15.2695C66 15.5977 66.2695 15.8594 66.6289 16.0547C66.9961 16.2422 67.4453 16.3359 67.9766 16.3359C68.6406 16.3359 69.2266 16.1953 69.7344 15.9141C70.2422 15.6328 70.6445 15.2891 70.9414 14.8828C71.2461 14.4766 71.4102 14.082 71.4336 13.6992L72.3594 14.7422C72.3047 15.0703 72.1562 15.4336 71.9141 15.832C71.6719 16.2305 71.3477 16.6133 70.9414 16.9805C70.543 17.3398 70.0664 17.6406 69.5117 17.8828C68.9648 18.1172 68.3477 18.2344 67.6602 18.2344C66.8008 18.2344 66.0469 18.0664 65.3984 17.7305C64.7578 17.3945 64.2578 16.9453 63.8984 16.3828C63.5469 15.8125 63.3711 15.1758 63.3711 14.4727C63.3711 13.793 63.5039 13.1953 63.7695 12.6797C64.0352 12.1562 64.418 11.7227 64.918 11.3789C65.418 11.0273 66.0195 10.7617 66.7227 10.582C67.4258 10.4023 68.2109 10.3125 69.0781 10.3125H71.5977ZM84.9219 7.75781V22.875H82.7422V5.32031H84.7344L84.9219 7.75781ZM93.4648 11.5547V11.8008C93.4648 12.7227 93.3555 13.5781 93.1367 14.3672C92.918 15.1484 92.5977 15.8281 92.1758 16.4062C91.7617 16.9844 91.25 17.4336 90.6406 17.7539C90.0312 18.0742 89.332 18.2344 88.543 18.2344C87.7383 18.2344 87.0273 18.1016 86.4102 17.8359C85.793 17.5703 85.2695 17.1836 84.8398 16.6758C84.4102 16.168 84.0664 15.5586 83.8086 14.8477C83.5586 14.1367 83.3867 13.3359 83.293 12.4453V11.1328C83.3867 10.1953 83.5625 9.35547 83.8203 8.61328C84.0781 7.87109 84.418 7.23828 84.8398 6.71484C85.2695 6.18359 85.7891 5.78125 86.3984 5.50781C87.0078 5.22656 87.7109 5.08594 88.5078 5.08594C89.3047 5.08594 90.0117 5.24219 90.6289 5.55469C91.2461 5.85938 91.7656 6.29688 92.1875 6.86719C92.6094 7.4375 92.9258 8.12109 93.1367 8.91797C93.3555 9.70703 93.4648 10.5859 93.4648 11.5547ZM91.2852 11.8008V11.5547C91.2852 10.9219 91.2188 10.3281 91.0859 9.77344C90.9531 9.21094 90.7461 8.71875 90.4648 8.29688C90.1914 7.86719 89.8398 7.53125 89.4102 7.28906C88.9805 7.03906 88.4688 6.91406 87.875 6.91406C87.3281 6.91406 86.8516 7.00781 86.4453 7.19531C86.0469 7.38281 85.707 7.63672 85.4258 7.95703C85.1445 8.26953 84.9141 8.62891 84.7344 9.03516C84.5625 9.43359 84.4336 9.84766 84.3477 10.2773V13.3125C84.5039 13.8594 84.7227 14.375 85.0039 14.8594C85.2852 15.3359 85.6602 15.7227 86.1289 16.0195C86.5977 16.3086 87.1875 16.4531 87.8984 16.4531C88.4844 16.4531 88.9883 16.332 89.4102 16.0898C89.8398 15.8398 90.1914 15.5 90.4648 15.0703C90.7461 14.6406 90.9531 14.1484 91.0859 13.5938C91.2188 13.0312 91.2852 12.4336 91.2852 11.8008ZM98.3984 7.3125V18H96.2305V5.32031H98.3398L98.3984 7.3125ZM102.359 5.25L102.348 7.26562C102.168 7.22656 101.996 7.20312 101.832 7.19531C101.676 7.17969 101.496 7.17188 101.293 7.17188C100.793 7.17188 100.352 7.25 99.9688 7.40625C99.5859 7.5625 99.2617 7.78125 98.9961 8.0625C98.7305 8.34375 98.5195 8.67969 98.3633 9.07031C98.2148 9.45312 98.1172 9.875 98.0703 10.3359L97.4609 10.6875C97.4609 9.92188 97.5352 9.20312 97.6836 8.53125C97.8398 7.85938 98.0781 7.26562 98.3984 6.75C98.7188 6.22656 99.125 5.82031 99.6172 5.53125C100.117 5.23438 100.711 5.08594 101.398 5.08594C101.555 5.08594 101.734 5.10547 101.938 5.14453C102.141 5.17578 102.281 5.21094 102.359 5.25ZM111.371 15.832V9.30469C111.371 8.80469 111.27 8.37109 111.066 8.00391C110.871 7.62891 110.574 7.33984 110.176 7.13672C109.777 6.93359 109.285 6.83203 108.699 6.83203C108.152 6.83203 107.672 6.92578 107.258 7.11328C106.852 7.30078 106.531 7.54688 106.297 7.85156C106.07 8.15625 105.957 8.48438 105.957 8.83594H103.789C103.789 8.38281 103.906 7.93359 104.141 7.48828C104.375 7.04297 104.711 6.64062 105.148 6.28125C105.594 5.91406 106.125 5.625 106.742 5.41406C107.367 5.19531 108.062 5.08594 108.828 5.08594C109.75 5.08594 110.562 5.24219 111.266 5.55469C111.977 5.86719 112.531 6.33984 112.93 6.97266C113.336 7.59766 113.539 8.38281 113.539 9.32812V15.2344C113.539 15.6562 113.574 16.1055 113.645 16.582C113.723 17.0586 113.836 17.4688 113.984 17.8125V18H111.723C111.613 17.75 111.527 17.418 111.465 17.0039C111.402 16.582 111.371 16.1914 111.371 15.832ZM111.746 10.3125L111.77 11.8359H109.578C108.961 11.8359 108.41 11.8867 107.926 11.9883C107.441 12.082 107.035 12.2266 106.707 12.4219C106.379 12.6172 106.129 12.8633 105.957 13.1602C105.785 13.4492 105.699 13.7891 105.699 14.1797C105.699 14.5781 105.789 14.9414 105.969 15.2695C106.148 15.5977 106.418 15.8594 106.777 16.0547C107.145 16.2422 107.594 16.3359 108.125 16.3359C108.789 16.3359 109.375 16.1953 109.883 15.9141C110.391 15.6328 110.793 15.2891 111.09 14.8828C111.395 14.4766 111.559 14.082 111.582 13.6992L112.508 14.7422C112.453 15.0703 112.305 15.4336 112.062 15.832C111.82 16.2305 111.496 16.6133 111.09 16.9805C110.691 17.3398 110.215 17.6406 109.66 17.8828C109.113 18.1172 108.496 18.2344 107.809 18.2344C106.949 18.2344 106.195 18.0664 105.547 17.7305C104.906 17.3945 104.406 16.9453 104.047 16.3828C103.695 15.8125 103.52 15.1758 103.52 14.4727C103.52 13.793 103.652 13.1953 103.918 12.6797C104.184 12.1562 104.566 11.7227 105.066 11.3789C105.566 11.0273 106.168 10.7617 106.871 10.582C107.574 10.4023 108.359 10.3125 109.227 10.3125H111.746ZM107.867 3.44531L110.141 0H112.754L109.613 3.44531H107.867ZM122.258 5.32031V6.98438H115.402V5.32031H122.258ZM117.723 2.23828H119.891V14.8594C119.891 15.2891 119.957 15.6133 120.09 15.832C120.223 16.0508 120.395 16.1953 120.605 16.2656C120.816 16.3359 121.043 16.3711 121.285 16.3711C121.465 16.3711 121.652 16.3555 121.848 16.3242C122.051 16.2852 122.203 16.2539 122.305 16.2305L122.316 18C122.145 18.0547 121.918 18.1055 121.637 18.1523C121.363 18.207 121.031 18.2344 120.641 18.2344C120.109 18.2344 119.621 18.1289 119.176 17.918C118.73 17.707 118.375 17.3555 118.109 16.8633C117.852 16.3633 117.723 15.6914 117.723 14.8477V2.23828ZM127.156 5.32031V18H124.977V5.32031H127.156ZM124.812 1.95703C124.812 1.60547 124.918 1.30859 125.129 1.06641C125.348 0.824219 125.668 0.703125 126.09 0.703125C126.504 0.703125 126.82 0.824219 127.039 1.06641C127.266 1.30859 127.379 1.60547 127.379 1.95703C127.379 2.29297 127.266 2.58203 127.039 2.82422C126.82 3.05859 126.504 3.17578 126.09 3.17578C125.668 3.17578 125.348 3.05859 125.129 2.82422C124.918 2.58203 124.812 2.29297 124.812 1.95703ZM135.711 16.4531C136.227 16.4531 136.703 16.3477 137.141 16.1367C137.578 15.9258 137.938 15.6367 138.219 15.2695C138.5 14.8945 138.66 14.4688 138.699 13.9922H140.762C140.723 14.7422 140.469 15.4414 140 16.0898C139.539 16.7305 138.934 17.25 138.184 17.6484C137.434 18.0391 136.609 18.2344 135.711 18.2344C134.758 18.2344 133.926 18.0664 133.215 17.7305C132.512 17.3945 131.926 16.9336 131.457 16.3477C130.996 15.7617 130.648 15.0898 130.414 14.332C130.188 13.5664 130.074 12.7578 130.074 11.9062V11.4141C130.074 10.5625 130.188 9.75781 130.414 9C130.648 8.23438 130.996 7.55859 131.457 6.97266C131.926 6.38672 132.512 5.92578 133.215 5.58984C133.926 5.25391 134.758 5.08594 135.711 5.08594C136.703 5.08594 137.57 5.28906 138.312 5.69531C139.055 6.09375 139.637 6.64062 140.059 7.33594C140.488 8.02344 140.723 8.80469 140.762 9.67969H138.699C138.66 9.15625 138.512 8.68359 138.254 8.26172C138.004 7.83984 137.66 7.50391 137.223 7.25391C136.793 6.99609 136.289 6.86719 135.711 6.86719C135.047 6.86719 134.488 7 134.035 7.26562C133.59 7.52344 133.234 7.875 132.969 8.32031C132.711 8.75781 132.523 9.24609 132.406 9.78516C132.297 10.3164 132.242 10.8594 132.242 11.4141V11.9062C132.242 12.4609 132.297 13.0078 132.406 13.5469C132.516 14.0859 132.699 14.5742 132.957 15.0117C133.223 15.4492 133.578 15.8008 134.023 16.0664C134.477 16.3242 135.039 16.4531 135.711 16.4531ZM150.676 15.832V9.30469C150.676 8.80469 150.574 8.37109 150.371 8.00391C150.176 7.62891 149.879 7.33984 149.48 7.13672C149.082 6.93359 148.59 6.83203 148.004 6.83203C147.457 6.83203 146.977 6.92578 146.562 7.11328C146.156 7.30078 145.836 7.54688 145.602 7.85156C145.375 8.15625 145.262 8.48438 145.262 8.83594H143.094C143.094 8.38281 143.211 7.93359 143.445 7.48828C143.68 7.04297 144.016 6.64062 144.453 6.28125C144.898 5.91406 145.43 5.625 146.047 5.41406C146.672 5.19531 147.367 5.08594 148.133 5.08594C149.055 5.08594 149.867 5.24219 150.57 5.55469C151.281 5.86719 151.836 6.33984 152.234 6.97266C152.641 7.59766 152.844 8.38281 152.844 9.32812V15.2344C152.844 15.6562 152.879 16.1055 152.949 16.582C153.027 17.0586 153.141 17.4688 153.289 17.8125V18H151.027C150.918 17.75 150.832 17.418 150.77 17.0039C150.707 16.582 150.676 16.1914 150.676 15.832ZM151.051 10.3125L151.074 11.8359H148.883C148.266 11.8359 147.715 11.8867 147.23 11.9883C146.746 12.082 146.34 12.2266 146.012 12.4219C145.684 12.6172 145.434 12.8633 145.262 13.1602C145.09 13.4492 145.004 13.7891 145.004 14.1797C145.004 14.5781 145.094 14.9414 145.273 15.2695C145.453 15.5977 145.723 15.8594 146.082 16.0547C146.449 16.2422 146.898 16.3359 147.43 16.3359C148.094 16.3359 148.68 16.1953 149.188 15.9141C149.695 15.6328 150.098 15.2891 150.395 14.8828C150.699 14.4766 150.863 14.082 150.887 13.6992L151.812 14.7422C151.758 15.0703 151.609 15.4336 151.367 15.832C151.125 16.2305 150.801 16.6133 150.395 16.9805C149.996 17.3398 149.52 17.6406 148.965 17.8828C148.418 18.1172 147.801 18.2344 147.113 18.2344C146.254 18.2344 145.5 18.0664 144.852 17.7305C144.211 17.3945 143.711 16.9453 143.352 16.3828C143 15.8125 142.824 15.1758 142.824 14.4727C142.824 13.793 142.957 13.1953 143.223 12.6797C143.488 12.1562 143.871 11.7227 144.371 11.3789C144.871 11.0273 145.473 10.7617 146.176 10.582C146.879 10.4023 147.664 10.3125 148.531 10.3125H151.051Z" fill="white"/>
</svg>
